<svg xmlns="http://www.w3.org/2000/svg" viewBox="0 0 960 500" font-family="PingFang SC, Microsoft YaHei, 'Segoe UI', Arial, sans-serif">
<rect width="960" height="500" fill="#FFFFFF"/>
<text x="48" y="44" font-size="26" font-weight="700" fill="#2F5597">欧拉方法几何意义</text>
<text x="48" y="72" font-size="15" fill="#6B7280">用当前点处的切线近似积分曲线，逐步推进得到离散近似解</text><defs><marker id="arr" viewBox="0 0 10 10" refX="9" refY="5" markerWidth="7" markerHeight="7" orient="auto-start-reverse"><path d="M 0 0 L 10 5 L 0 10 Z" fill="#6B7280"/></marker></defs>
<line x1="100" y1="380" x2="880" y2="380" stroke="#6B7280" stroke-width="1.5"/>
<line x1="100" y1="80" x2="100" y2="380" stroke="#6B7280" stroke-width="1.5"/>
<text x="890" y="398" font-size="14" fill="#6B7280" font-weight="400" text-anchor="start">x</text>
<text x="85" y="75" font-size="14" fill="#6B7280" font-weight="400" text-anchor="start">y</text>
<path d="M 100.0 300.0 L 111.9 295.7 L 123.7 291.3 L 135.6 287.0 L 147.5 282.7 L 159.3 278.3 L 171.2 274.0 L 183.1 269.7 L 194.9 265.4 L 206.8 261.1 L 218.6 256.9 L 230.5 252.6 L 242.4 248.4 L 254.2 244.1 L 266.1 239.9 L 278.0 235.8 L 289.8 231.6 L 301.7 227.5 L 313.6 223.4 L 325.4 219.3 L 337.3 215.2 L 349.2 211.2 L 361.0 207.2 L 372.9 203.2 L 384.7 199.3 L 396.6 195.4 L 408.5 191.6 L 420.3 187.7 L 432.2 184.0 L 444.1 180.2 L 455.9 176.5 L 467.8 172.9 L 479.7 169.3 L 491.5 165.7 L 503.4 162.2 L 515.3 158.7 L 527.1 155.3 L 539.0 151.9 L 550.8 148.6 L 562.7 145.3 L 574.6 142.1 L 586.4 138.9 L 598.3 135.8 L 610.2 132.7 L 622.0 129.7 L 633.9 126.8 L 645.8 123.9 L 657.6 121.1 L 669.5 118.3 L 681.4 115.6 L 693.2 113.0 L 705.1 110.4 L 716.9 107.9 L 728.8 105.5 L 740.7 103.1 L 752.5 100.8 L 764.4 98.6 L 776.3 96.4 L 788.1 94.3 L 800.0 92.2" fill="none" stroke="#1A1B1C" stroke-width="2.5"/>
<text x="750" y="130" font-size="13" fill="#1A1B1C" font-weight="600" text-anchor="start">精确解 y(x)</text>
<line x1="150" y1="280" x2="270" y2="244" stroke="#4A6FB5" stroke-width="2" marker-end="url(#arr)"/>
<circle cx="150" cy="280" r="5" fill="#FFFFFF" stroke="#4A6FB5" stroke-width="2"/><text x="150" y="285" font-size="14" fill="#2F5597" font-weight="600" text-anchor="middle"></text>
<line x1="270" y1="244" x2="390" y2="190" stroke="#4A6FB5" stroke-width="2" marker-end="url(#arr)"/>
<circle cx="270" cy="244" r="5" fill="#FFFFFF" stroke="#4A6FB5" stroke-width="2"/><text x="270" y="249" font-size="14" fill="#2F5597" font-weight="600" text-anchor="middle"></text>
<line x1="390" y1="190" x2="510" y2="118" stroke="#4A6FB5" stroke-width="2" marker-end="url(#arr)"/>
<circle cx="390" cy="190" r="5" fill="#FFFFFF" stroke="#4A6FB5" stroke-width="2"/><text x="390" y="195" font-size="14" fill="#2F5597" font-weight="600" text-anchor="middle"></text>
<line x1="510" y1="118" x2="630" y2="28" stroke="#4A6FB5" stroke-width="2" marker-end="url(#arr)"/>
<circle cx="510" cy="118" r="5" fill="#FFFFFF" stroke="#4A6FB5" stroke-width="2"/><text x="510" y="123" font-size="14" fill="#2F5597" font-weight="600" text-anchor="middle"></text>
<line x1="630" y1="28" x2="750" y2="-79" stroke="#4A6FB5" stroke-width="2" marker-end="url(#arr)"/>
<circle cx="630" cy="28" r="5" fill="#FFFFFF" stroke="#4A6FB5" stroke-width="2"/><text x="630" y="33" font-size="14" fill="#2F5597" font-weight="600" text-anchor="middle"></text>
<circle cx="750" cy="-79" r="5" fill="#FFFFFF" stroke="#4A6FB5" stroke-width="2"/><text x="750" y="-74" font-size="14" fill="#2F5597" font-weight="600" text-anchor="middle"></text>
<text x="160" y="250" font-size="12" fill="#2F5597" font-weight="600" text-anchor="start">y0</text>
<text x="280" y="220" font-size="12" fill="#2F5597" font-weight="600" text-anchor="start">y1</text>
<text x="400" y="190" font-size="12" fill="#2F5597" font-weight="600" text-anchor="start">y2</text>
<text x="500" y="200" font-size="13" fill="#2F5597" font-weight="600" text-anchor="start">欧拉折线（每段用当前点切线近似）</text>
<rect x="60" y="420" width="840" height="50" rx="14" fill="#E7EDFB" stroke="#4A6FB5" stroke-width="2"/>
<text x="480" y="442" font-size="14" fill="#2F5597" font-weight="600" text-anchor="middle">向前欧拉：y_{n+1} = y_n + h·f(x_n, y_n)，用(x_n,y_n)处的切线近似积分曲线</text>
<text x="480" y="462" font-size="12" fill="#1A1B1C" font-weight="400" text-anchor="middle">一阶精度，局部误差O(h²)，整体误差O(h)；显式，计算简单但条件稳定</text>
<rect x="36" y="438" width="888" height="46" rx="12" fill="#F0F4FA" stroke="#D6E0F0" stroke-width="1"/>
<text x="480" y="461" font-size="15" fill="#2F5597" font-weight="600">一阶精度，显式，条件稳定</text>
</svg>